# xmcd
#
# Track frame offsets: 
#        150
#        19652
#        37918
#        58828
#        70489
#        92876
#        108796
#        129823
#        146157
#        165765
#        183355
#        206086
#        226306
#        239159
#        256958
#        277537
#
# Disc length: 3876 seconds
#
# Revision: 0
# Processed by: cddbd v1.5.1PL2 Copyright (c) Steve Scherf et al.
# Submitted via: ExactAudioCopy v0.95a5
#
DISCID=d60f2210
DTITLE=Various Artist - New Orleans Party Gras
DYEAR=2004
DGENRE=Blues
TTITLE0=Henri Smith - Big Chief
TTITLE1=Cyril Neville and Allen Toussaint - New Orleans Cookin'
TTITLE2=Rene Netto and Sounds Of New Orleans - South Rampart Street Para
TTITLE2=de
TTITLE3=Feufollet - Evangeline
TTITLE4=Lil' Malcolm and The House Rockers - Hot Tamale Baby
TTITLE5=Jo Jo Reed - Back On The Scene
TTITLE6=Juice - Back By The River
TTITLE7=Jeremy Lyons and The Deltabilly Boys - There's Gonna Be A Fight 
TTITLE7=(At The BBQ Tonight)
TTITLE8=Rod Paulin - The Preacher
TTITLE9=Leroy Jones - Barbarin Stomp
TTITLE10=Forever Fabulous Chickenhawks - Saturday Night Fish Fry
TTITLE11=Wardell and His Slammin' Big Band - El Pavo
TTITLE12=Fredy Omar Con Su Banda - Mambo #504
TTITLE13=Cyril Neville and The Uptown Allstars - Second Line Soca
TTITLE14=Rebirth Brass Band - It's All Over Now
TTITLE15=Original Dixieland Jazz Band - Ostrich Walk
EXTD=
EXTT0=
EXTT1=
EXTT2=
EXTT3=
EXTT4=
EXTT5=
EXTT6=
EXTT7=
EXTT8=
EXTT9=
EXTT10=
EXTT11=
EXTT12=
EXTT13=
EXTT14=
EXTT15=
PLAYORDER=
